<svg xmlns="http://www.w3.org/2000/svg" viewBox="0 0 640 860" role="img" aria-labelledby="title desc">
  <title id="title">樂水有機米學習卡</title>
  <desc id="desc">完成關卡獲得的學習卡通用圖示</desc>
  <defs>
    <linearGradient id="paper" x2="0" y2="1">
      <stop stop-color="#fffef6"/>
      <stop offset="1" stop-color="#f5edce"/>
    </linearGradient>
    <linearGradient id="hill" x2="0" y2="1">
      <stop stop-color="#87b85a"/>
      <stop offset="1" stop-color="#467c3b"/>
    </linearGradient>
  </defs>
  <rect x="20" y="20" width="600" height="820" rx="36" fill="#173f2d"/>
  <rect x="35" y="35" width="570" height="790" rx="28" fill="url(#paper)"/>
  <path d="M35 385L152 285 236 347 349 244 468 351 605 275V472H35Z" fill="url(#hill)"/>
  <path d="M35 424H605V529H35Z" fill="#b4d56c"/>
  <path d="M35 465c124-36 227-22 322 5s166 31 248 11v55H35Z" fill="#e2da87"/>
  <path d="M70 501c129-35 210-25 300 4s157 34 210 22" fill="none" stroke="#72b5c8" stroke-width="13"/>
  <g fill="none" stroke="#a27b24" stroke-width="7" stroke-linecap="round">
    <path d="M488 498V374"/>
    <path d="M520 502V354"/>
    <path d="M552 501V379"/>
    <path d="M488 401q-35-26-45-48M488 424q36-27 47-52"/>
    <path d="M520 383q-36-26-46-50M520 407q37-28 49-55"/>
    <path d="M552 406q-34-25-45-46M552 430q38-28 49-54"/>
  </g>
  <text x="320" y="116" text-anchor="middle" fill="#234e32" font-size="25" font-family="sans-serif" font-weight="700">樂水部落有機米</text>
  <text x="320" y="168" text-anchor="middle" fill="#173f2d" font-size="43" font-family="sans-serif" font-weight="700">學 習 卡</text>
  <rect x="180" y="202" width="280" height="4" rx="2" fill="#cfaa4a"/>
  <text x="320" y="631" text-anchor="middle" fill="#173f2d" font-size="28" font-family="sans-serif" font-weight="700">完成任務獲得</text>
  <text x="320" y="676" text-anchor="middle" fill="#576654" font-size="21" font-family="sans-serif">認識土地・珍惜水源・支持部落</text>
  <rect x="104" y="738" width="432" height="45" rx="22" fill="#234e32"/>
  <text x="320" y="767" text-anchor="middle" fill="#fffcec" font-size="20" font-family="sans-serif">Organic Rice Learning Journey</text>
</svg>
